<?xml version="1.0" standalone="no"?>
<!DOCTYPE svg PUBLIC "-//W3C//DTD SVG 20010904//EN"
 "http://www.w3.org/TR/2001/REC-SVG-20010904/DTD/svg10.dtd">
<svg version="1.0" xmlns="http://www.w3.org/2000/svg"
 width="300.000000pt" height="169.000000pt" viewBox="0 0 300.000000 169.000000"
 preserveAspectRatio="xMidYMid meet">
<metadata>
Created by potrace 1.10, written by Peter Selinger 2001-2011
</metadata>
<g transform="translate(0.000000,169.000000) scale(0.100000,-0.100000)"
fill="#9900ff" stroke="none">
<path d="M1144 1307 c-62 -36 -94 -70 -94 -99 0 -39 23 -91 61 -139 l32 -40
-28 -29 c-16 -16 -31 -27 -35 -25 -8 5 -140 -36 -201 -63 -46 -20 -87 -66 -69
-77 6 -4 8 -11 5 -16 -4 -5 1 -9 9 -9 9 0 16 -4 16 -10 0 -12 89 22 148 57 24
13 74 53 111 88 67 64 67 64 97 49 29 -15 81 -15 117 0 15 7 17 2 17 -32 0
-53 8 -72 31 -72 24 0 35 41 19 70 -13 24 -13 23 17 39 30 15 30 15 31 -20 2
-59 13 -89 33 -89 23 0 27 45 5 69 -27 31 -21 55 27 103 51 52 69 95 46 109
-22 13 -51 -13 -84 -75 -23 -45 -39 -62 -70 -76 -22 -10 -42 -17 -43 -15 -2 2
13 19 33 37 21 18 44 48 52 67 13 29 13 36 0 49 -22 21 -36 8 -69 -67 -31 -67
-51 -91 -78 -90 -8 0 -5 4 8 9 25 11 30 47 7 56 -23 9 -86 -16 -94 -39 -5 -12
-10 -16 -14 -10 -4 6 7 37 23 68 24 45 30 70 30 117 0 100 -36 140 -96 105z
m56 -36 c19 -36 12 -114 -17 -170 l-26 -53 -18 23 c-30 38 -59 103 -59 130 1
16 14 34 43 56 49 38 62 40 77 14z m330 -124 c0 -20 -69 -96 -70 -77 0 14 55
90 66 90 2 0 4 -6 4 -13z m-123 -44 c-7 -16 -13 -20 -18 -12 -10 16 -1 36 15
36 11 0 12 -5 3 -24z m-117 -61 c0 -7 -63 -42 -76 -42 -14 0 12 24 40 36 38
16 36 16 36 6z m-247 -116 c-21 -20 -71 -53 -111 -72 -69 -34 -75 -35 -90 -20
-16 16 -15 19 6 36 12 10 55 30 95 45 39 14 86 32 102 39 17 8 31 12 33 11 2
-2 -14 -19 -35 -39z m327 1 c0 -2 -7 -4 -15 -4 -8 0 -15 9 -15 19 0 17 2 18
15 4 8 -8 15 -16 15 -19z m94 7 c9 -23 7 -36 -3 -30 -12 8 -21 46 -11 46 4 0
11 -7 14 -16z"/>
<path d="M1808 1221 c-52 -33 -79 -67 -113 -146 -30 -67 -31 -95 -6 -126 16
-20 28 -24 70 -23 34 0 60 7 79 20 45 34 52 37 46 20 -11 -28 14 -17 28 11 16
33 34 31 31 -3 -2 -26 11 -33 20 -10 7 18 -3 56 -14 56 -5 0 13 30 41 66 27
36 50 69 50 74 0 5 3 15 6 23 9 24 -27 30 -43 7 -15 -21 -15 -21 -35 5 -22 29
-68 55 -96 55 -10 0 -39 -13 -64 -29z m151 -39 l24 -19 -32 -55 c-17 -31 -38
-61 -46 -68 -8 -7 -12 -16 -9 -21 3 -5 -1 -6 -8 -4 -8 3 -25 -6 -38 -20 -46
-49 -150 -54 -150 -6 0 33 41 127 71 164 16 19 47 44 70 55 45 23 60 19 118
-26z m32 -55 c-13 -12 -20 -15 -16 -7 14 26 28 41 33 35 3 -3 -5 -16 -17 -28z"/>
<path d="M2001 1024 c-17 -12 -21 -22 -17 -40 4 -14 2 -24 -4 -24 -5 0 -10 -5
-10 -11 0 -7 4 -8 13 -2 6 5 46 8 87 7 41 -1 80 2 85 6 6 4 19 3 30 -1 18 -9
18 -9 -3 -5 -19 4 -21 2 -11 -10 9 -11 8 -14 -3 -14 -25 0 -108 -61 -123 -91
-8 -15 -15 -42 -15 -58 0 -33 19 -81 31 -81 28 0 169 191 169 229 0 11 5 32
12 45 9 22 8 29 -7 46 -26 29 -57 21 -76 -18 -14 -26 -19 -30 -28 -18 -20 24
-50 26 -61 5 -6 -10 -15 -19 -21 -19 -6 0 -6 8 1 21 9 15 8 24 -1 35 -15 18
-19 18 -48 -2z m225 -16 c4 -6 3 -8 -3 -5 -6 4 -13 -2 -16 -13 -3 -11 -11 -20
-18 -20 -7 0 -9 3 -6 7 4 3 1 13 -6 21 -6 9 -7 13 -2 10 6 -4 17 -3 25 3 19
11 17 11 26 -3z m-196 -7 c0 -12 -20 -25 -27 -18 -7 7 6 27 18 27 5 0 9 -4 9
-9z m149 -120 c-18 -32 -51 -80 -75 -107 l-42 -49 -7 36 c-4 24 -2 46 7 63 12
24 123 114 141 115 5 1 -6 -25 -24 -58z"/>
<path d="M1824 902 c-13 -8 -54 -73 -54 -84 0 -5 6 -8 13 -8 6 0 22 23 34 50
12 28 21 50 20 50 -1 0 -7 -4 -13 -8z"/>
<path d="M1524 882 c-19 -12 -27 -52 -14 -67 25 -30 100 -11 100 25 0 33 -57
61 -86 42z m59 -29 c12 -11 -14 -33 -39 -33 -23 0 -32 19 -17 33 8 9 48 9 56
0z"/>
<path d="M1695 883 c-11 -3 -24 -10 -30 -15 -7 -7 -3 -8 13 -3 33 10 27 -4 -8
-16 -31 -11 -35 -16 -22 -35 10 -17 54 -21 59 -6 3 7 -5 12 -19 12 -20 1 -19
3 10 15 21 9 32 21 32 35 0 21 -1 21 -35 13z"/>
<path d="M1411 857 c-19 -7 -36 -18 -39 -25 -3 -9 3 -10 23 -2 38 15 41 13 16
-13 -18 -21 -20 -26 -7 -36 11 -9 23 -8 55 5 23 9 41 19 41 23 0 17 -14 19
-41 5 -34 -17 -38 -9 -7 15 12 10 18 23 14 29 -9 14 -11 14 -55 -1z"/>
</g>
</svg>
