<?xml version="1.0" standalone="no"?>
<!DOCTYPE svg PUBLIC "-//W3C//DTD SVG 20010904//EN"
 "http://www.w3.org/TR/2001/REC-SVG-20010904/DTD/svg10.dtd">
<svg version="1.0" xmlns="http://www.w3.org/2000/svg"
 width="300.000000pt" height="169.000000pt" viewBox="0 0 300.000000 169.000000"
 preserveAspectRatio="xMidYMid meet">
<metadata>
Created by potrace 1.10, written by Peter Selinger 2001-2011
</metadata>
<g transform="translate(0.000000,169.000000) scale(0.100000,-0.100000)"
fill="#9900ff" stroke="none">
<path d="M190 1573 c-13 -3 -34 -12 -45 -20 -19 -14 -18 -15 10 -8 17 4 81 9
143 11 84 2 112 0 112 -10 0 -26 -64 -114 -194 -266 -59 -70 -75 -95 -66 -103
9 -9 17 -5 35 17 13 17 21 34 19 38 -3 5 -1 7 3 6 10 -3 61 52 150 165 46 57
67 75 118 98 34 15 75 31 90 35 27 7 28 6 21 -22 -14 -59 -51 -119 -111 -183
-99 -106 -143 -181 -106 -181 12 0 62 81 55 91 -3 5 -1 8 5 7 10 -3 123 118
141 152 6 11 8 26 4 33 -4 6 -4 9 1 5 4 -4 22 4 39 17 31 24 140 77 184 90 21
6 22 3 22 -42 0 -64 -20 -94 -120 -178 -131 -110 -180 -157 -180 -171 0 -8 4
-14 9 -14 11 0 106 93 103 101 0 4 5 6 13 5 19 -2 152 119 181 165 27 43 33
123 11 152 -10 14 -18 15 -52 6 -43 -12 -160 -73 -170 -89 -3 -6 -11 -10 -18
-10 -8 0 -8 3 1 12 16 16 15 63 -2 77 -15 12 -75 -5 -131 -37 -16 -10 -39 -21
-50 -25 -19 -7 -19 -6 -2 7 10 8 19 27 20 42 l2 29 -110 1 c-60 1 -121 -1
-135 -3z"/>
<path d="M1442 1512 c1 -59 -44 -146 -151 -295 -51 -70 -89 -132 -86 -137 10
-17 28 -11 21 6 -5 14 -4 15 9 4 12 -10 35 -10 112 -1 230 27 275 45 334 139
25 40 29 53 23 92 -10 71 -38 122 -86 152 -50 30 -138 62 -147 52 -3 -4 1 -9
9 -12 8 -3 46 -21 85 -41 79 -41 100 -70 111 -148 l6 -52 -52 -55 c-59 -63
-70 -67 -235 -91 -60 -9 -118 -18 -127 -21 -10 -3 -18 -3 -18 -1 0 3 38 59 83
125 46 66 94 144 107 174 24 56 30 122 12 140 -8 8 -11 -1 -10 -30z"/>
<path d="M2270 1437 c0 -41 -37 -133 -105 -262 -37 -69 -65 -132 -63 -141 2
-9 31 33 65 93 78 137 91 164 114 231 23 67 24 102 4 102 -9 0 -15 -9 -15 -23z"/>
<path d="M832 1340 c-56 -13 -65 -32 -12 -25 25 4 50 8 57 10 25 8 23 -16 -8
-75 -30 -58 -31 -61 -14 -86 14 -23 22 -25 61 -22 24 2 44 1 44 -2 -1 -13 -51
-51 -62 -47 -8 3 -5 6 6 6 11 1 17 4 13 7 -11 11 -107 -27 -122 -49 -24 -34
-18 -70 15 -102 29 -28 30 -28 51 -9 11 10 38 49 60 85 24 42 47 69 61 73 18
5 20 8 9 15 -12 8 -12 14 4 38 10 15 29 36 42 46 21 17 43 71 43 107 0 8 -15
-8 -34 -36 -61 -91 -131 -134 -164 -101 -14 15 -13 20 11 65 51 94 32 124 -61
102z m56 -311 c-38 -61 -45 -66 -65 -46 -25 25 -9 62 34 80 60 24 64 20 31
-34z"/>
<path d="M1962 1248 c-19 -19 -14 -28 17 -28 34 0 51 18 30 31 -19 12 -33 11
-47 -3z"/>
<path d="M2413 1229 c-54 -16 -47 -28 12 -22 52 5 55 5 55 -17 0 -12 -14 -48
-31 -80 -41 -78 -37 -95 24 -95 26 0 47 -3 47 -7 0 -14 -99 -125 -139 -157
-37 -29 -41 -31 -41 -13 0 33 62 105 115 134 48 26 49 28 20 28 -36 0 -81 -22
-77 -38 1 -7 -3 -11 -9 -9 -21 4 -79 -82 -79 -118 0 -57 20 -61 82 -13 61 47
92 81 132 146 14 23 33 42 41 42 8 0 12 6 9 14 -3 8 2 17 14 20 10 4 30 18 43
32 19 20 21 27 10 33 -11 7 -11 13 3 32 9 13 16 27 16 32 0 16 -27 -12 -70
-71 -38 -52 -46 -57 -83 -60 -23 -1 -50 -5 -60 -8 -15 -5 -13 0 7 31 14 20 32
56 42 80 15 42 15 46 0 70 -17 26 -31 29 -83 14z m217 -132 c0 -2 -10 -12 -22
-23 l-23 -19 19 23 c18 21 26 27 26 19z"/>
<path d="M1670 1122 c-44 -43 -49 -61 -22 -84 42 -38 93 -33 117 10 l14 27 1
-27 c0 -16 4 -28 10 -28 6 0 8 24 7 57 -3 50 -7 60 -28 70 -38 20 -55 16 -99
-25z m103 9 c18 -6 18 -8 2 -21 -9 -7 -23 -27 -31 -42 -13 -24 -20 -29 -47
-26 -44 4 -47 31 -7 68 32 30 50 35 83 21z"/>
<path d="M1927 1085 c-31 -64 -31 -65 -14 -65 14 0 51 92 45 110 -2 6 -16 -14
-31 -45z"/>
<path d="M648 786 c-141 -6 -260 -14 -264 -18 -4 -5 85 -8 199 -8 l205 0 -18
-37 c-11 -21 -57 -117 -104 -213 -47 -96 -101 -197 -121 -223 -53 -70 -118
-98 -258 -109 -75 -6 -113 -5 -122 2 -15 13 -28 -1 -20 -22 4 -10 31 -12 133
-7 122 6 147 11 221 46 60 29 184 247 271 476 32 84 34 87 64 87 70 0 136 13
136 26 0 9 -11 13 -32 12 -18 0 -149 -6 -290 -12z"/>
<path d="M1068 508 c-59 -16 -108 -65 -118 -118 -6 -33 -5 -51 5 -66 17 -27
77 -44 154 -44 56 0 66 3 92 29 38 38 38 75 -1 151 -28 55 -33 60 -63 59 -17
-1 -49 -5 -69 -11z m106 -69 c30 -59 32 -76 10 -108 -16 -22 -22 -23 -101 -19
-100 5 -119 18 -109 72 9 45 57 94 99 99 76 9 75 10 101 -44z"/>
<path d="M1730 517 c0 -5 5 -17 10 -28 10 -19 -9 -211 -25 -250 -4 -11 0 -18
13 -21 16 -5 21 1 26 32 7 44 71 121 115 140 28 11 33 10 72 -24 48 -40 54
-43 63 -21 3 10 -5 20 -24 30 -16 8 -34 24 -40 35 -12 22 -49 26 -83 9 -38
-20 -87 -72 -87 -93 0 -15 -3 -17 -9 -8 -4 7 -4 34 0 60 12 75 10 98 -11 123
-10 13 -19 20 -20 16z"/>
<path d="M1388 449 c-33 -65 -35 -93 -7 -138 20 -33 21 -33 77 -29 47 4 59 2
72 -14 20 -25 90 -37 90 -15 0 9 -13 17 -35 21 -30 6 -35 11 -35 35 0 16 7 34
15 41 9 7 14 19 11 27 -3 8 -2 12 3 9 10 -6 21 16 21 41 0 9 -8 13 -21 11 -15
-2 -28 -19 -44 -58 -24 -58 -51 -80 -97 -80 -22 0 -31 7 -42 35 -15 35 -11 68
14 114 6 12 10 29 8 38 -2 10 -14 -6 -30 -38z"/>
<path d="M2080 441 c-12 -8 -7 -11 21 -11 19 0 44 -6 54 -14 18 -13 18 -14 0
-42 -11 -16 -18 -32 -17 -37 1 -4 -3 -6 -10 -5 -6 2 -22 -15 -34 -37 -26 -44
-30 -60 -13 -49 7 4 7 -1 -1 -16 -6 -12 -9 -24 -6 -27 14 -14 37 11 67 74 41
85 56 103 86 103 31 0 30 -30 -2 -116 -29 -78 -29 -74 -11 -74 16 0 55 94 63
152 7 47 -9 68 -50 68 -16 0 -35 7 -41 16 -14 19 -85 29 -106 15z m43 -136
c-3 -9 -8 -14 -10 -11 -3 3 -2 9 2 15 9 16 15 13 8 -4z"/>
<path d="M2381 416 c-37 -38 -64 -103 -49 -120 5 -6 17 -27 26 -46 9 -19 32
-43 49 -53 32 -18 33 -18 67 3 23 13 33 26 29 36 -4 12 -11 11 -39 -7 l-34
-20 -22 24 c-50 54 -50 54 -14 61 33 6 64 33 85 73 15 30 14 49 -5 67 -25 25
-57 19 -93 -18z m79 -12 c0 -41 -53 -94 -95 -94 -13 0 -13 5 -3 29 7 16 22 41
33 55 22 29 65 36 65 10z"/>
<path d="M2575 410 c3 -5 15 -10 26 -10 22 0 23 -6 4 -40 -8 -14 -14 -35 -15
-47 0 -28 21 -30 75 -7 20 8 39 14 41 11 7 -7 -28 -47 -36 -42 -10 6 -70 -30
-111 -67 -35 -31 -49 -60 -49 -102 0 -28 4 -36 19 -36 25 0 113 79 107 96 -3
8 0 13 6 11 6 -1 29 24 50 56 l39 57 64 0 c56 0 83 8 70 22 -2 2 -31 1 -63 -2
-41 -4 -63 -2 -71 7 -9 10 -9 13 1 13 7 0 19 9 26 21 10 16 11 24 1 35 -10 12
-13 12 -23 -6 -6 -11 -37 -33 -69 -49 -55 -27 -57 -27 -51 -7 4 12 13 34 21
49 18 36 10 47 -33 47 -21 0 -33 -4 -29 -10z m57 -207 c-61 -73 -102 -110
-102 -91 0 25 57 96 97 122 21 13 40 22 42 20 2 -2 -15 -25 -37 -51z"/>
</g>
</svg>
