<?xml version="1.0" standalone="no"?>
<!DOCTYPE svg PUBLIC "-//W3C//DTD SVG 20010904//EN"
 "http://www.w3.org/TR/2001/REC-SVG-20010904/DTD/svg10.dtd">
<svg version="1.0" xmlns="http://www.w3.org/2000/svg"
 width="300.000000pt" height="169.000000pt" viewBox="0 0 300.000000 169.000000"
 preserveAspectRatio="xMidYMid meet">
<metadata>
Created by potrace 1.10, written by Peter Selinger 2001-2011
</metadata>
<g transform="translate(0.000000,169.000000) scale(0.100000,-0.100000)"
fill="#9900ff" stroke="none">
<path d="M1820 1550 c-115 -40 -140 -67 -140 -154 0 -61 3 -68 50 -138 28 -40
80 -107 116 -148 73 -84 89 -111 99 -160 5 -29 2 -39 -17 -57 -24 -23 -111
-43 -184 -43 -24 0 -46 -4 -49 -10 -8 -13 46 -12 144 0 85 11 131 43 131 89
-1 30 -22 92 -38 112 -199 244 -222 280 -222 358 0 64 21 88 106 122 46 18 79
23 149 23 103 1 131 -9 233 -86 65 -50 85 -47 30 4 -128 119 -246 145 -408 88z"/>
<path d="M800 1524 c-74 -12 -188 -30 -252 -38 -119 -16 -355 -62 -394 -77
-12 -4 -25 -13 -30 -20 -5 -9 -2 -10 12 -5 30 12 321 63 401 71 84 8 73 26 97
-156 9 -64 16 -158 16 -210 0 -91 -1 -96 -27 -121 -16 -14 -45 -31 -66 -38
-33 -10 -40 -10 -51 5 -10 14 -14 14 -23 3 -8 -10 -8 -18 2 -32 27 -36 133 -1
173 57 18 28 22 47 22 116 0 83 -32 318 -49 364 -9 24 -8 25 42 30 117 12 297
51 297 64 0 16 -6 16 -170 -13z"/>
<path d="M2406 1245 c-18 -18 -22 -70 -6 -80 6 -4 22 1 36 10 20 13 25 23 22
48 -3 37 -27 47 -52 22z m28 -27 c-8 -29 -10 -31 -23 -23 -8 4 -8 12 -1 26 15
27 33 24 24 -3z"/>
<path d="M909 1173 c-38 -20 -60 -39 -74 -65 -20 -38 -20 -38 0 -75 24 -45 86
-83 137 -83 30 0 42 6 60 30 l22 31 13 -26 c8 -14 20 -25 28 -25 19 0 19 3 -5
47 -13 25 -20 57 -20 93 0 61 -5 72 -37 89 -34 17 -65 13 -124 -16z m146 -13
c3 -5 -1 -10 -9 -10 -13 0 -15 -11 -12 -61 2 -37 0 -56 -5 -48 -6 10 -9 7 -9
-11 0 -53 -56 -67 -116 -29 -78 48 -70 106 21 153 33 18 120 22 130 6z"/>
<path d="M1190 1175 c0 -11 7 -45 16 -75 9 -30 20 -77 26 -105 11 -51 24 -75
39 -75 21 0 104 98 130 154 32 68 36 96 14 96 -8 0 -15 -6 -15 -14 0 -28 -51
-124 -89 -166 l-40 -44 -6 29 c-8 41 -56 186 -66 205 -7 12 -8 11 -9 -5z"/>
<path d="M2828 1130 c-9 -30 -18 -68 -20 -85 -3 -29 -5 -30 -50 -29 -56 2 -54
-13 1 -22 l38 -6 -13 -72 c-17 -89 -18 -170 -1 -183 33 -27 97 -25 97 3 0 9
-11 13 -37 11 l-38 -2 2 99 c2 140 5 146 48 136 26 -6 35 -5 35 5 0 7 -15 16
-34 19 l-34 7 14 62 c21 87 14 131 -8 57z"/>
<path d="M1543 1128 c-17 -13 -39 -35 -47 -49 -19 -33 -30 -100 -22 -135 7
-26 8 -26 78 -22 62 3 73 7 95 32 13 16 22 35 19 43 -3 8 -2 12 3 8 5 -3 11
-2 14 2 2 5 2 2 1 -5 -4 -15 16 -62 27 -62 18 0 18 21 -1 52 -11 18 -20 49
-20 69 0 24 -5 39 -15 43 -12 4 -15 -3 -15 -30 0 -19 -9 -52 -20 -74 -17 -33
-26 -40 -70 -49 -71 -15 -70 -16 -70 34 0 82 39 131 113 141 35 5 53 2 74 -11
l28 -18 -24 27 c-32 35 -101 37 -148 4z"/>
<path d="M2058 1080 c-19 -12 -44 -77 -52 -137 -9 -60 17 -85 81 -81 67 4 70
28 4 28 -63 0 -69 11 -53 89 13 63 38 94 76 94 14 0 23 3 20 8 -7 12 -55 11
-76 -1z"/>
<path d="M2204 1053 c4 -16 12 -58 19 -95 9 -53 15 -68 28 -68 15 0 17 8 12
56 -5 49 -3 58 13 68 10 6 26 11 34 11 21 0 19 29 -2 33 -10 2 -29 -8 -43 -22
l-25 -25 -16 35 c-20 41 -29 44 -20 7z"/>
<path d="M2405 970 c7 -99 10 -110 24 -94 12 13 -4 163 -19 177 -10 10 -11 -6
-5 -83z"/>
<path d="M2511 959 c-7 -52 -21 -146 -32 -210 -23 -139 -23 -139 -5 -139 10 0
18 25 26 88 7 48 13 99 14 114 1 29 10 36 21 18 7 -11 68 -5 123 12 41 12 57
47 42 93 -6 18 -19 40 -29 49 -22 20 -106 33 -115 17 -5 -7 2 -11 17 -11 42 0
84 -20 96 -46 24 -53 8 -75 -61 -84 -76 -11 -87 1 -76 84 5 35 5 73 0 86 -7
18 -12 2 -21 -71z"/>
<path d="M825 723 c-152 -13 -270 -35 -294 -55 -19 -16 -21 -19 -6 -13 42 17
196 36 350 43 88 5 162 7 163 6 2 -1 -3 -33 -12 -71 -8 -37 -22 -113 -31 -168
-17 -112 -49 -221 -70 -245 -8 -9 -11 -21 -6 -29 14 -22 47 33 69 116 20 76
66 350 64 386 -1 16 8 17 116 12 64 -4 134 -11 156 -16 64 -17 63 8 -2 29 -30
10 -397 14 -497 5z"/>
<path d="M1600 423 c0 -15 -3 -38 -6 -50 -5 -19 -9 -20 -34 -11 -16 5 -41 8
-57 6 -23 -3 -17 -6 30 -17 l57 -14 0 -65 c0 -60 2 -66 34 -98 26 -26 42 -34
71 -34 42 0 45 23 2 24 -14 1 -40 15 -57 31 -26 25 -30 36 -30 81 l0 53 70 -6
c60 -5 70 -4 70 10 0 12 -9 16 -32 15 -18 -1 -50 -1 -70 0 l-38 2 6 44 c4 27
2 46 -5 50 -7 5 -11 -3 -11 -21z"/>
<path d="M1140 341 c0 -83 20 -128 64 -146 58 -24 100 -19 129 15 20 23 26 26
31 14 3 -8 2 -12 -4 -9 -12 7 -13 -5 -2 -22 5 -7 13 -9 21 -4 11 7 11 13 -2
31 -12 18 -15 38 -10 86 6 60 5 64 -15 64 -19 0 -21 -6 -24 -77 l-3 -78 -55
-3 c-76 -4 -100 21 -109 112 -9 86 -21 96 -21 17z"/>
<path d="M1990 340 c-79 -44 -94 -112 -38 -182 31 -39 33 -40 84 -36 39 3 64
13 100 39 42 30 49 41 52 73 4 47 -17 80 -68 106 -48 25 -85 25 -130 0z m80 6
c0 -2 -11 -6 -25 -8 -13 -3 -22 -1 -19 3 5 9 44 13 44 5z m62 -45 c50 -34 49
-70 0 -110 -78 -61 -125 -66 -164 -17 -42 52 -34 130 13 131 13 0 23 5 22 11
-4 21 92 10 129 -15z"/>
<path d="M2322 323 c-4 -10 -7 -63 -7 -118 0 -94 1 -100 21 -103 19 -3 20 1
16 53 -4 48 -1 59 18 80 19 20 34 25 70 25 36 0 47 4 47 16 0 14 -9 16 -55 11
-30 -3 -62 -13 -70 -21 -8 -8 -17 -40 -20 -70 -2 -31 -7 -56 -11 -56 -6 0 -5
97 2 163 5 40 1 47 -11 20z"/>
</g>
</svg>
